<?xml version="1.0" encoding="UTF-8" standalone="no"?>
<svg
   xmlns:dc="http://purl.org/dc/elements/1.1/"
   xmlns:cc="http://creativecommons.org/ns#"
   xmlns:rdf="http://www.w3.org/1999/02/22-rdf-syntax-ns#"
   xmlns:svg="http://www.w3.org/2000/svg"
   xmlns="http://www.w3.org/2000/svg"
   xmlns:sodipodi="http://sodipodi.sourceforge.net/DTD/sodipodi-0.dtd"
   xmlns:inkscape="http://www.inkscape.org/namespaces/inkscape"
   height="511.196px"
   id="Layer_1"
   style="enable-background:new 0 0 512 511.196;"
   version="1.1"
   viewBox="0 0 512 511.196"
   width="512px"
   x="0px"
   xml:space="preserve"
   y="0px"
   inkscape:version="0.48.4 r9939"
   sodipodi:docname="Admin.svg"
   inkscape:export-filename="Admin.png"
   inkscape:export-xdpi="3.5156193"
   inkscape:export-ydpi="3.5156193"><metadata
     id="metadata15"><rdf:RDF><cc:Work
         rdf:about=""><dc:format>image/svg+xml</dc:format><dc:type
           rdf:resource="http://purl.org/dc/dcmitype/StillImage" /><dc:title></dc:title></cc:Work></rdf:RDF></metadata><defs
     id="defs13" /><sodipodi:namedview
     pagecolor="#ffffff"
     bordercolor="#666666"
     borderopacity="1"
     objecttolerance="10"
     gridtolerance="10"
     guidetolerance="10"
     inkscape:pageopacity="0"
     inkscape:pageshadow="2"
     inkscape:window-width="1920"
     inkscape:window-height="996"
     id="namedview11"
     showgrid="false"
     inkscape:zoom="1.4949928"
     inkscape:cx="151.65167"
     inkscape:cy="255.59801"
     inkscape:window-x="-8"
     inkscape:window-y="307"
     inkscape:window-maximized="1"
     inkscape:current-layer="Layer_1" /><g
     id="meanicons_x5F_57"
     style="fill:#bababa;fill-opacity:1;stroke:none;stroke-opacity:1"><g
       id="g4"
       style="fill:#bababa;fill-opacity:1;stroke:none;stroke-opacity:1"><path
         d="M373.73,270.565c4.286-4.313,9.092-7.766,14.196-10.428c-4.672-15.736-11.131-30.717-19.302-44.588    c-5.262,1.566-10.857,2.445-16.646,2.445c-31.923,0-57.753-25.824-57.753-57.688c0-5.785,0.908-11.379,2.438-16.729    c-15.021-8.807-31.314-15.693-48.529-20.402c-2.523,4.418-5.589,8.637-9.384,12.426c-22.538,22.537-59.075,22.537-81.652,0    c-4.114-4.168-7.453-8.723-10.082-13.598c-18.537,4.568-36.092,11.699-52.152,21.061c1.704,5.424,2.574,11.207,2.574,17.242    c0,31.863-25.823,57.688-57.698,57.688c-6.154,0-12.087-0.959-17.647-2.77c-8.795,14.891-15.701,31.041-20.391,48.123    c5.854,2.738,11.396,6.488,16.275,11.406c22.55,22.506,22.55,59.086,0,81.629c-5.039,5.047-10.858,8.939-16.997,11.678    c4.106,15.785,10.082,30.818,17.766,44.822c6.505-2.572,13.541-4.002,20.994-4.002c31.875,0,57.698,25.863,57.698,57.754    c0,8.195-1.725,15.982-4.771,23.059c14.813,8.775,30.762,15.738,47.691,20.51c2.819-6.855,6.969-13.293,12.578-18.842    c22.538-22.594,59.094-22.594,81.645,0c5.815,5.766,10.074,12.447,12.909,19.637c18.237-4.938,35.519-12.309,51.322-21.848    c-2.96-6.887-4.587-14.543-4.587-22.516c0-31.891,25.83-57.754,57.753-57.754c7.044,0,13.778,1.354,20.03,3.652    c8.21-15.111,14.489-31.502,18.604-48.668c-6.119-2.828-11.85-6.635-16.884-11.686    C351.184,329.647,351.184,293.067,373.73,270.565z M195.272,396.338c-43.855,0-79.371-35.488-79.371-79.332    c0-43.84,35.515-79.375,79.371-79.375c43.822,0,79.356,35.535,79.356,79.375C274.629,360.85,239.095,396.338,195.272,396.338z"
         id="path6"
         style="fill:#bababa;fill-opacity:1;stroke:none;stroke-opacity:1" /><path
         d="M511.861,95.565c-3.729-0.219-7.465-0.984-11.075-2.568c-16.24-7.027-23.693-25.887-16.713-42.123    c1.36-3.098,3.111-5.867,5.258-8.311c-5.675-7.184-12.048-13.539-19.106-19.027c-2.392,1.891-5.086,3.482-8.104,4.686    c-16.459,6.475-35.043-1.527-41.567-18.012c-1.154-2.961-1.872-6.035-2.138-9.076c-9.543-1.508-19.372-1.754-29.235-0.629    c-0.37,2.801-1.088,5.59-2.289,8.305c-7.04,16.234-25.896,23.721-42.137,16.697c-2.952-1.285-5.64-2.955-7.944-4.988    c-8.653,6.176-16.231,13.436-22.645,21.551c1.978,2.475,3.67,5.264,4.91,8.371c6.485,16.441-1.572,35.064-18.02,41.535    c-3.171,1.264-6.441,1.973-9.648,2.193c-1.54,9.459-1.785,19.221-0.729,28.957c3.623,0.25,7.267,1.035,10.764,2.578    c16.222,7.041,23.687,25.883,16.679,42.117c-1.601,3.611-3.795,6.797-6.404,9.51c5.362,7.293,11.509,13.824,18.356,19.498    c2.781-2.666,6.193-4.855,9.978-6.342c16.471-6.521,35.074,1.484,41.552,17.967c1.712,4.252,2.423,8.584,2.263,12.883    c9.431,1.484,19.075,1.834,28.79,0.889c0.056-4.172,0.909-8.342,2.656-12.348c6.989-16.264,25.858-23.688,42.109-16.727    c4.199,1.844,7.737,4.389,10.658,7.543c8.396-6.281,15.805-13.604,22.04-21.75c-2.934-2.951-5.354-6.574-6.962-10.711    c-6.537-16.436,1.529-35.043,17.979-41.553c3.658-1.441,7.387-2.154,11.045-2.213C513.335,114.95,513.25,105.245,511.861,95.565z     M417.712,152.192c-22.604,8.988-48.189-2.092-57.129-24.711c-8.967-22.645,2.109-48.199,24.708-57.139    c22.611-8.971,48.196,2.105,57.137,24.73C451.421,117.668,440.356,143.252,417.712,152.192z"
         id="path8"
         style="fill:#bababa;fill-opacity:1;stroke:none;stroke-opacity:1" /></g></g><g
     id="Layer_1_1_" /></svg>