<?xml version="1.0" encoding="UTF-8" standalone="no"?>
<svg
   xmlns:dc="http://purl.org/dc/elements/1.1/"
   xmlns:cc="http://creativecommons.org/ns#"
   xmlns:rdf="http://www.w3.org/1999/02/22-rdf-syntax-ns#"
   xmlns:svg="http://www.w3.org/2000/svg"
   xmlns="http://www.w3.org/2000/svg"
   xmlns:sodipodi="http://sodipodi.sourceforge.net/DTD/sodipodi-0.dtd"
   xmlns:inkscape="http://www.inkscape.org/namespaces/inkscape"
   enable-background="new 0 0 512 512"
   height="512px"
   id="Layer_1"
   version="1.1"
   viewBox="0 0 512 512"
   width="512px"
   x="0px"
   xml:space="preserve"
   y="0px"
   inkscape:version="0.48.4 r9939"
   sodipodi:docname="Chat.svg"
   inkscape:export-filename="U:\Development\Repositories\Main\branches\kevin\WebApp\Resources\Images\nav\20\Chat.png"
   inkscape:export-xdpi="3.5799999"
   inkscape:export-ydpi="3.5799999"><metadata
     id="metadata11"><rdf:RDF><cc:Work
         rdf:about=""><dc:format>image/svg+xml</dc:format><dc:type
           rdf:resource="http://purl.org/dc/dcmitype/StillImage" /><dc:title></dc:title></cc:Work></rdf:RDF></metadata><defs
     id="defs9" /><sodipodi:namedview
     pagecolor="#ffffff"
     bordercolor="#666666"
     borderopacity="1"
     objecttolerance="10"
     gridtolerance="10"
     guidetolerance="10"
     inkscape:pageopacity="0"
     inkscape:pageshadow="2"
     inkscape:window-width="1920"
     inkscape:window-height="996"
     id="namedview7"
     showgrid="false"
     inkscape:zoom="1.4926453"
     inkscape:cx="151.48756"
     inkscape:cy="256"
     inkscape:window-x="-8"
     inkscape:window-y="307"
     inkscape:window-maximized="1"
     inkscape:current-layer="g3" /><g
     id="g3"><path
       d="m 474.23491,438.51995 c 2.02178,3.0044 2.17041,7.10507 0.32609,10.2816 -1.345,2.289 -3.54962,3.815 -5.9392,4.07259 -0.80187,0.13307 -1.71387,0 -2.62265,-0.11475 -55.71303,-7.12461 -100.61788,-29.09905 -137.39603,-63.98713 0,0 -8.57788,5.58883 -27.33101,5.58883 -115.29321,0 -218.868389,-58.59851 -218.868389,-198.08493 0,-108.041011 103.575179,-192.5717994 218.869449,-192.5717994 115.30284,0 208.79581,84.5307884 208.79581,192.5717994 0,61.28793 -30.15361,115.96645 -77.26414,151.83727 0,38.92285 22.81166,62.98608 41.43007,90.40652 z M 221.82046,189.2663 c 0,-17.80662 -12.63003,-32.22673 -28.22377,-32.22673 -15.59375,0 -28.22377,14.42011 -28.22377,32.22673 0,17.80664 12.63002,32.22675 28.22377,32.22675 15.59374,0 28.22377,-14.42011 28.22377,-32.22675 z m 102.63966,0 c 0,-17.80662 -12.63002,-32.22673 -28.22377,-32.22673 -15.59374,0 -28.22377,14.42011 -28.22377,32.22673 0,17.80664 12.63003,32.22675 28.22377,32.22675 15.59375,0 28.22377,-14.42011 28.22377,-32.22675 z m 102.63966,0 c 0,-17.80662 -12.63002,-32.22673 -28.22377,-32.22673 -15.59374,0 -28.22377,14.42011 -28.22377,32.22673 0,17.80664 12.63003,32.22675 28.22377,32.22675 15.59375,0 28.22377,-14.42011 28.22377,-32.22675 z"
       id="path5"
       inkscape:connector-curvature="0"
       style="fill:#d9534f;fill-opacity:1"
       sodipodi:nodetypes="cccccssssccsssssssssssssss" /><path
       id="path2999"
       d="m 304.65668,416.82415 c -33.32796,23.34784 -74.84144,37.3773 -118.31789,37.3773 -8.16947,0 -16.17109,-1.59315 -24.04761,-2.5466 -23.47134,21.65948 -57.81821,41.32661 -116.806075,55.63075 -0.784766,0.21119 -1.595192,0.22095 -2.305116,0.1062 -2.105183,-0.22096 -4.042506,-1.54675 -5.229277,-3.53788 -1.620852,-2.75657 -1.487206,-6.33352 0.291882,-8.94605 C 54.622173,471.07416 70.041644,442.86142 70.593332,416.2992 29.137601,385.10282 2.6009708,337.56722 2.6009708,284.26211 c 0,-51.16871 24.5244642,-96.15771 63.1479832,-126.62039 -1.962984,11.28387 -3.274846,22.76674 -3.274846,34.54504 0,6.58989 0.409489,12.94294 0.826462,19.29479 -16.662908,20.70601 -26.486379,45.76055 -26.486379,72.78056 0,38.02555 19.17865,74.25896 52.606036,99.4197 l 15.828963,11.91258 -0.4512,21.63262 c -0.21704,10.39635 -1.91273,20.42036 -4.70217,30.1294 16.69711,-7.76186 30.27121,-16.46008 40.687,-26.08489 l 11.02628,-10.16561 14.09157,1.70545 7.23396,0.97298 c 4.34401,0.63117 8.7372,1.35388 13.2063,1.35388 15.97865,0 31.58201,-2.21332 46.38351,-6.23708 22.19047,5.03337 46.19641,7.77041 71.93224,7.92301 z"
       inkscape:connector-curvature="0"
       style="fill:#bababa;fill-opacity:1"
       sodipodi:nodetypes="csccccccscscsccccccccscc" /></g></svg>