<?xml version="1.0" encoding="UTF-8" standalone="no"?>
<svg
   xmlns:dc="http://purl.org/dc/elements/1.1/"
   xmlns:cc="http://creativecommons.org/ns#"
   xmlns:rdf="http://www.w3.org/1999/02/22-rdf-syntax-ns#"
   xmlns:svg="http://www.w3.org/2000/svg"
   xmlns="http://www.w3.org/2000/svg"
   xmlns:sodipodi="http://sodipodi.sourceforge.net/DTD/sodipodi-0.dtd"
   xmlns:inkscape="http://www.inkscape.org/namespaces/inkscape"
   enable-background="new 0 0 32 32"
   height="32px"
   id="stroke_x5F_02"
   version="1.1"
   viewBox="0 0 32 32"
   width="32px"
   x="0px"
   xml:space="preserve"
   y="0px"
   inkscape:version="0.48.4 r9939"
   sodipodi:docname="Customers.svg"
   inkscape:export-filename="U:\Development\Repositories\Main\branches\kevin\WebApp\Resources\Images\nav\20\Customers.png"
   inkscape:export-xdpi="56.25"
   inkscape:export-ydpi="56.25"><metadata
     id="metadata9"><rdf:RDF><cc:Work
         rdf:about=""><dc:format>image/svg+xml</dc:format><dc:type
           rdf:resource="http://purl.org/dc/dcmitype/StillImage" /><dc:title /></cc:Work></rdf:RDF></metadata><defs
     id="defs7" /><sodipodi:namedview
     pagecolor="#ffffff"
     bordercolor="#666666"
     borderopacity="1"
     objecttolerance="10"
     gridtolerance="10"
     guidetolerance="10"
     inkscape:pageopacity="0"
     inkscape:pageshadow="2"
     inkscape:window-width="1920"
     inkscape:window-height="996"
     id="namedview5"
     showgrid="false"
     inkscape:zoom="70.993575"
     inkscape:cx="17.009943"
     inkscape:cy="4.5700966"
     inkscape:window-x="-8"
     inkscape:window-y="307"
     inkscape:window-maximized="1"
     inkscape:current-layer="stroke_x5F_02" /><path
     clip-rule="evenodd"
     d="M 30,32 26,32 6,32 2,32 C 0.896,32 0,31.105 0,30 0,28.896 0.896,28 2,28 L 4,28 4,2 C 4,0.896 4.896,0 6,0 l 20,0 c 1.104,0 2,0.896 2,2 l 0,26 2,0 c 1.105,0 2,0.896 2,2 0,1.105 -0.894,2 -2,2 z M 24,27.201 24,4.8 C 24,4.359 23.643,4 23.2,4 L 8.801,4 C 8.359,4 8,4.359 8,4.8 L 8,27.2 C 8,27.642 8.359,28 8.801,28 L 14,28 14,24.8 C 14,24.358 14.358,24 14.801,24 l 2.399,0 c 0.442,0 0.8,0.358 0.8,0.8 l 0,3.2 5.2,0 c 0.443,0 0.8,-0.358 0.8,-0.799 z"
     id="path3"
     style="fill:#5cb85c;fill-opacity:1;fill-rule:evenodd"
     inkscape:connector-curvature="0"
     sodipodi:nodetypes="sccssscsssscsssssssssscsssscss" /><path
     style="fill:#5cb85c;fill-opacity:1;fill-rule:evenodd"
     id="path2982"
     d="m 18,18.891227 c 0,-0.441 0.358,-0.8 0.801,-0.8 l 2.399,0 c 0.442,0 0.8,0.358 0.8,0.8 l 0,2.4 c 0,0.442 -0.357,0.8 -0.8,0.8 l -2.399,0 c -0.442,0 -0.801,-0.357 -0.801,-0.799 z m 3.201,-2.8 -2.399,0 c -0.443,0 -0.802,-0.357 -0.802,-0.799 l 0,-2.4 c 0,-0.441 0.358,-0.8 0.801,-0.8 l 2.399,0 c 0.442,0 0.8,0.358 0.8,0.8 l 0,2.4 c 0,0.442 -0.357,0.799 -0.799,0.799 z m 0,-6 -2.399,0 C 18.359,10.091227 18,9.7342274 18,9.2922274 l 0,-2.401 c 0,-0.442 0.359,-0.8 0.801,-0.8 l 2.399,0 c 0.443,0 0.8,0.358 0.8,0.8 l 0,2.4 c 0,0.443 -0.357,0.7999996 -0.799,0.7999996 z m -8,12 -2.399,0 c -0.443,0 -0.802,-0.357 -0.802,-0.799 l 0,-2.4 c 0,-0.441 0.358,-0.8 0.801,-0.8 l 2.399,0 c 0.442,0 0.8,0.358 0.8,0.8 l 0,2.4 c 0,0.442 -0.357,0.799 -0.799,0.799 z m 0,-6 -2.399,0 c -0.443,0 -0.802,-0.357 -0.802,-0.799 l 0,-2.4 c 0,-0.441 0.358,-0.8 0.801,-0.8 l 2.399,0 c 0.442,0 0.8,0.358 0.8,0.8 l 0,2.4 c 0,0.442 -0.357,0.799 -0.799,0.799 z m 0,-6 -2.399,0 C 10.359,10.091227 10,9.7342274 10,9.2922274 l 0,-2.401 c 0,-0.442 0.359,-0.8 0.801,-0.8 l 2.399,0 c 0.443,0 0.8,0.358 0.8,0.8 l 0,2.4 c 0,0.443 -0.357,0.7999996 -0.799,0.7999996 z"
     clip-rule="evenodd"
     inkscape:connector-curvature="0"
     sodipodi:nodetypes="ssssssssssssssssssssssssssssssssssssssssssssssssssssss" /></svg>