<?xml version="1.0" encoding="UTF-8" standalone="no"?>
<svg
   xmlns:dc="http://purl.org/dc/elements/1.1/"
   xmlns:cc="http://creativecommons.org/ns#"
   xmlns:rdf="http://www.w3.org/1999/02/22-rdf-syntax-ns#"
   xmlns:svg="http://www.w3.org/2000/svg"
   xmlns="http://www.w3.org/2000/svg"
   xmlns:sodipodi="http://sodipodi.sourceforge.net/DTD/sodipodi-0.dtd"
   xmlns:inkscape="http://www.inkscape.org/namespaces/inkscape"
   enable-background="new 0 0 32 32"
   height="32px"
   id="stroke_x5F_02"
   version="1.1"
   viewBox="0 0 32 32"
   width="32px"
   x="0px"
   xml:space="preserve"
   y="0px"
   inkscape:version="0.48.4 r9939"
   sodipodi:docname="Dashboard.svg"
   inkscape:export-filename="Dashboard.png"
   inkscape:export-xdpi="56.25"
   inkscape:export-ydpi="56.25"><metadata
     id="metadata9"><rdf:RDF><cc:Work
         rdf:about=""><dc:format>image/svg+xml</dc:format><dc:type
           rdf:resource="http://purl.org/dc/dcmitype/StillImage" /><dc:title></dc:title></cc:Work></rdf:RDF></metadata><defs
     id="defs7" /><sodipodi:namedview
     pagecolor="#ffffff"
     bordercolor="#666666"
     borderopacity="1"
     objecttolerance="10"
     gridtolerance="10"
     guidetolerance="10"
     inkscape:pageopacity="0"
     inkscape:pageshadow="2"
     inkscape:window-width="1088"
     inkscape:window-height="848"
     id="namedview5"
     showgrid="false"
     inkscape:zoom="19.618652"
     inkscape:cx="8.0483835"
     inkscape:cy="16"
     inkscape:window-x="0"
     inkscape:window-y="315"
     inkscape:window-maximized="0"
     inkscape:current-layer="stroke_x5F_02" /><path
     clip-rule="evenodd"
     d="M16,32.006c-8.837,0-16-7.164-16-16c0-8.837,7.163-16,16-16  c8.836,0,16,7.163,16,16C32,24.842,24.837,32.006,16,32.006z M16,4.005c-6.627,0-12,5.373-12,12c0,1.404,0.254,2.747,0.698,4H12  c0,2.209,1.791,4,4,4c2.209,0,4-1.791,4-4h7.303c0.444-1.253,0.698-2.596,0.698-4C28,9.378,22.627,4.005,16,4.005z M17.718,21  c-0.552,0.956-1.775,1.284-2.732,0.731c-0.956-0.553-1.284-1.775-0.732-2.731c0.552-0.957,5.376-6.19,5.376-6.19  c0.746-0.809,1.088-0.611,0.76,0.439C20.39,13.249,18.271,20.043,17.718,21z"
     fill="#010101"
     fill-rule="evenodd"
     id="path3"
     style="fill:#428bca;fill-opacity:1" /></svg>