<?xml version="1.0" encoding="UTF-8" standalone="no"?>
<svg
   xmlns:dc="http://purl.org/dc/elements/1.1/"
   xmlns:cc="http://creativecommons.org/ns#"
   xmlns:rdf="http://www.w3.org/1999/02/22-rdf-syntax-ns#"
   xmlns:svg="http://www.w3.org/2000/svg"
   xmlns="http://www.w3.org/2000/svg"
   xmlns:sodipodi="http://sodipodi.sourceforge.net/DTD/sodipodi-0.dtd"
   xmlns:inkscape="http://www.inkscape.org/namespaces/inkscape"
   height="512px"
   id="Layer_1"
   style="enable-background:new 0 0 512 512;"
   version="1.1"
   viewBox="0 0 512 512"
   width="512px"
   x="0px"
   xml:space="preserve"
   y="0px"
   inkscape:version="0.48.4 r9939"
   sodipodi:docname="Forum.svg"
   inkscape:export-filename="U:\Development\Repositories\Main\branches\kevin\WebApp\Resources\Images\nav\20\Forum.png"
   inkscape:export-xdpi="3.5799999"
   inkscape:export-ydpi="3.5799999"><metadata
     id="metadata13"><rdf:RDF><cc:Work
         rdf:about=""><dc:format>image/svg+xml</dc:format><dc:type
           rdf:resource="http://purl.org/dc/dcmitype/StillImage" /><dc:title></dc:title></cc:Work></rdf:RDF></metadata><defs
     id="defs11" /><sodipodi:namedview
     pagecolor="#ffffff"
     bordercolor="#666666"
     borderopacity="1"
     objecttolerance="10"
     gridtolerance="10"
     guidetolerance="10"
     inkscape:pageopacity="0"
     inkscape:pageshadow="2"
     inkscape:window-width="1920"
     inkscape:window-height="996"
     id="namedview9"
     showgrid="false"
     inkscape:zoom="0.55695719"
     inkscape:cx="-121.91007"
     inkscape:cy="-36.010724"
     inkscape:window-x="-8"
     inkscape:window-y="307"
     inkscape:window-maximized="1"
     inkscape:current-layer="g3" /><g
     id="g3"><rect
       height="512"
       style="fill:none;"
       width="512"
       id="rect5" /><path
       d="M 448,5.0679479 H 128 c -35.344,0 -64,32.4459161 -64,72.4643561 v 54.348276 c -48,0 -64,36.23218 -64,72.46436 v 217.39308 c 0,54.34826 32,90.58044 80,90.58044 h 368 c 35.344,0 64,-32.44591 64,-72.46436 V 77.532304 C 512,37.513864 483.344,5.0679479 448,5.0679479 z M 480,439.8541 c 0,19.97412 -14.359,36.23218 -32,36.23218 H 80 c -30.508,0 -48,-19.81447 -48,-54.34826 V 204.34494 c 0,-31.84469 15.383,-36.23218 32,-36.23218 v 253.62526 c 0,10.01366 7.164,18.11608 16,18.11608 8.836,0 16,-8.10242 16,-18.11608 V 77.532304 c 0,-19.974118 14.352,-36.232176 32,-36.232176 h 320 c 17.641,0 32,16.258058 32,36.232176 V 439.8541 z M 439.953,149.99667 H 327.188 c -9.594,0 -9.594,27.17413 0,27.17413 h 112.766 c 10.734,0 10.734,-27.17413 -0.001,-27.17413 z m 0,54.34827 H 327.188 c -9.594,0 -9.594,27.17414 0,27.17414 h 112.766 c 10.734,0 10.734,-27.17414 -0.001,-27.17414 z m 0,-108.696547 H 327.188 c -9.594,0 -9.594,27.174137 0,27.174137 h 112.766 c 10.734,0 10.734,-27.174137 -0.001,-27.174137 z m 0,181.160897 H 327.188 c -9.594,0 -9.594,27.17414 0,27.17414 h 112.766 c 10.734,0 10.734,-27.17414 -0.001,-27.17414 z m 0,54.34827 H 327.188 c -9.594,0 -9.594,27.17414 0,27.17414 h 112.766 c 10.734,0 10.734,-27.17414 -0.001,-27.17414 z m -160,-54.34827 H 135.188 c -9.594,0 -9.594,27.17414 0,27.17414 h 144.766 c 10.734,0 10.734,-27.17414 -0.001,-27.17414 z m 0,54.34827 H 135.188 c -9.594,0 -9.594,27.17414 0,27.17414 h 144.766 c 10.734,0 10.734,-27.17414 -0.001,-27.17414 z m 160,54.34828 H 327.188 c -9.594,0 -9.594,27.17413 0,27.17413 h 112.766 c 10.734,0 10.734,-27.17413 -0.001,-27.17413 z m -160,0 H 135.188 c -9.594,0 -9.594,27.17413 0,27.17413 h 144.766 c 10.734,0 10.734,-27.17413 -0.001,-27.17413 z M 135.188,231.48397 h 144.797 c 5.125,0 7.781,-6.63389 8,-13.58706 V 109.23547 c 0.266,-6.63389 -2.391,-13.587077 -8,-13.587077 H 135.188 c -5.016,0 -7.383,6.953187 -7.156,13.587077 v 108.66144 c 0.202,6.95204 2.577,13.58706 7.156,13.58706 z"
       style="fill:#ababab;fill-opacity:0.94117647"
       id="path7"
       inkscape:connector-curvature="0" /></g></svg>