<?xml version="1.0" encoding="UTF-8" standalone="no"?>
<svg
   xmlns:dc="http://purl.org/dc/elements/1.1/"
   xmlns:cc="http://creativecommons.org/ns#"
   xmlns:rdf="http://www.w3.org/1999/02/22-rdf-syntax-ns#"
   xmlns:svg="http://www.w3.org/2000/svg"
   xmlns="http://www.w3.org/2000/svg"
   xmlns:sodipodi="http://sodipodi.sourceforge.net/DTD/sodipodi-0.dtd"
   xmlns:inkscape="http://www.inkscape.org/namespaces/inkscape"
   enable-background="new 0 0 512 512"
   height="512px"
   id="Layer_1"
   version="1.1"
   viewBox="0 0 512 512"
   width="512px"
   x="0px"
   xml:space="preserve"
   y="0px"
   inkscape:version="0.48.4 r9939"
   sodipodi:docname="Groups.svg"
   inkscape:export-filename="U:\Development\Repositories\Main\branches\kevin\WebApp\Resources\Images\nav\20\Groups.png"
   inkscape:export-xdpi="3.5243056"
   inkscape:export-ydpi="3.5243056"><metadata
     id="metadata11"><rdf:RDF><cc:Work
         rdf:about=""><dc:format>image/svg+xml</dc:format><dc:type
           rdf:resource="http://purl.org/dc/dcmitype/StillImage" /><dc:title></dc:title></cc:Work></rdf:RDF></metadata><defs
     id="defs9" /><sodipodi:namedview
     pagecolor="#ffffff"
     bordercolor="#666666"
     borderopacity="1"
     objecttolerance="10"
     gridtolerance="10"
     guidetolerance="10"
     inkscape:pageopacity="0"
     inkscape:pageshadow="2"
     inkscape:window-width="1920"
     inkscape:window-height="996"
     id="namedview7"
     showgrid="false"
     inkscape:zoom="4.8336053"
     inkscape:cx="119.21351"
     inkscape:cy="256"
     inkscape:window-x="-8"
     inkscape:window-y="307"
     inkscape:window-maximized="1"
     inkscape:current-layer="Layer_1" /><g
     id="g3"
     style="fill:#428bca;fill-opacity:1"
     transform="matrix(1.0310663,0,0,1.0924071,0,-16.217448)"><path
       d="M 439.953,386.375 C 422.664,380 368,365.719 368,350.703 l 0,-31.328 c 16.148,-17.734 24.469,-27.094 30.398,-57.016 1.602,0.422 4.836,0.672 6.586,0.672 14.108,0 19.828,-7.719 24.983,-37.531 4.625,-26.813 -6.594,-28.859 -19.188,-29 C 432.219,109.891 350.797,80 310.352,80 c -25.469,0 -22.219,16.25 -22.219,16.25 -48.453,0 -70.18,19.656 -61.805,100.313 -11.797,0.375 -21.672,3.5 -17.25,28.938 5.133,29.641 14.047,37.453 28,37.531 6.922,30.859 16.813,40.796 34.922,58.484 l 0,29.188 c 0,15.016 -54.664,29.297 -71.953,35.672 C 182.758,392.751 144,402.156 144,446.047 l 0,12.531 c 0,11.828 9.852,21.422 22,21.422 l 308,0 c 12.148,0 22,-9.594 22,-21.422 l 0,-12.531 c 0,-43.891 -38.758,-53.297 -56.047,-59.672 z"
       id="path5"
       style="fill:#428bca;fill-opacity:1"
       inkscape:connector-curvature="0"
       sodipodi:nodetypes="ssccsccscccccsssssssss" /></g><g
     transform="matrix(1.0310663,0,0,1.0924071,-403.98078,-64.45396)"
     style="fill:#bababa;fill-opacity:1"
     id="g3756"><path
       inkscape:connector-curvature="0"
       style="fill:#bababa;fill-opacity:1"
       id="path3758"
       d="m 508.7715,474.92961 -94.032,0 c -12.312,0 -22.281,-9.984 -22.281,-22.281 l 0,-13.031 c 0,-45.641 39.258,-55.422 56.773,-62.063 17.508,-6.625 71.461,-19.883 71.461,-35.492 l 0,-15.711 -0.117,0 -0.117,0 c -66.156,0 -96,-27.5 -96,-27.5 98.664,-61.922 -8.773,-239.922002 151.594,-239.922002 30.063,0 39.141,16.344 39.141,16.344 28.57,0 44.71,11.063 54.016,28.375002 -3.431,2.445 -6.181,5.07 -8.228,7.563 -0.078,0.094 -0.155,0.195 -0.233,0.289 -17.086,2.156 -36.055,8.18 -50.539,24.242 -16.383,18.172 -23.32,44.602 -21.734,84.156 -2.398,1.82 -4.719,4.016 -6.867,6.648 -13.664,16.781 -9.734,39.383 -8.445,46.797 2.094,12.094 7.602,43.945 33.055,56.359 6.984,20.93 16.5,33.383 29.445,46.694 l 0,6.642 c -10.414,5.25 -30.609,11.789 -39.148,14.555 -5.625,1.82 -10.492,3.406 -13.969,4.688 l -4.289,1.517 c -17.713,6.147 -62.244,21.748 -69.486,71.131 z"
       sodipodi:nodetypes="cssscsccscsccccccccccccccc" /></g></svg>