<?xml version="1.0" encoding="UTF-8" standalone="no"?>
<svg
   xmlns:dc="http://purl.org/dc/elements/1.1/"
   xmlns:cc="http://creativecommons.org/ns#"
   xmlns:rdf="http://www.w3.org/1999/02/22-rdf-syntax-ns#"
   xmlns:svg="http://www.w3.org/2000/svg"
   xmlns="http://www.w3.org/2000/svg"
   xmlns:sodipodi="http://sodipodi.sourceforge.net/DTD/sodipodi-0.dtd"
   xmlns:inkscape="http://www.inkscape.org/namespaces/inkscape"
   enable-background="new 0 0 16 16"
   height="16px"
   id="Layer_1"
   version="1.1"
   viewBox="0 0 16 16"
   width="16px"
   x="0px"
   xml:space="preserve"
   y="0px"
   inkscape:version="0.48.4 r9939"
   sodipodi:docname="Inventory.svg"
   inkscape:export-filename="U:\Development\Repositories\Main\branches\kevin\WebApp\Resources\Images\nav\20\Inventory.png"
   inkscape:export-xdpi="112.5"
   inkscape:export-ydpi="112.5"><metadata
     id="metadata22"><rdf:RDF><cc:Work
         rdf:about=""><dc:format>image/svg+xml</dc:format><dc:type
           rdf:resource="http://purl.org/dc/dcmitype/StillImage" /><dc:title></dc:title></cc:Work></rdf:RDF></metadata><defs
     id="defs20" /><sodipodi:namedview
     pagecolor="#ffffff"
     bordercolor="#666666"
     borderopacity="1"
     objecttolerance="10"
     gridtolerance="10"
     guidetolerance="10"
     inkscape:pageopacity="0"
     inkscape:pageshadow="2"
     inkscape:window-width="1920"
     inkscape:window-height="996"
     id="namedview18"
     showgrid="false"
     inkscape:zoom="47.764648"
     inkscape:cx="4.7339862"
     inkscape:cy="6.3251211"
     inkscape:window-x="-8"
     inkscape:window-y="307"
     inkscape:window-maximized="1"
     inkscape:current-layer="Layer_1" /><g
     id="g3"
     transform="matrix(1,0,0,1.0690888,-2.1259023e-8,0.19679836)"
     style="fill:#f0ad4e;fill-opacity:1"><defs
       id="defs5"><rect
         height="16"
         id="SVGID_1_"
         width="16"
         x="0"
         y="0" /></defs><path
       d="M 9,6.568 C 9,6.293 8.867,5.887 8.703,5.666 L 6.297,2.402 C 6.133,2.181 5.775,2 5.5,2 h -3 C 2.225,2 2,2.225 2,2.5 V 7 H 1 C 0.451,7 0,7.45 0,8 v 2.779 C 0.533,10.301 1.229,10 2,10 c 1.303,0 2.402,0.838 2.816,2 H 6.184 C 6.6,10.838 7.699,10 9,10 V 6.568 z M 8,7 H 3 V 3 H 4.951 C 5.225,3 5.586,3.18 5.75,3.4 L 7.701,6 C 7.865,6.22 8,6.625 8,6.9 V 7 z"
       id="path12"
       inkscape:connector-curvature="0"
       style="fill:#f0ad4e;fill-opacity:1" /></g><g
     id="g2999"
     transform="translate(-0.06280796,0.98399133)"
     style="fill:#bababa;fill-opacity:1"><defs
       id="defs3001"><rect
         width="16"
         id="rect3003"
         height="16"
         x="0"
         y="0" /></defs><path
       id="path3005"
       d="m 2,11 c -1.104,0 -2,0.896 -2,2 0,1.104 0.896,2 2,2 1.104,0 2,-0.896 2,-2 0,-1.104 -0.896,-2 -2,-2"
       inkscape:connector-curvature="0"
       style="fill:#bababa;fill-opacity:1" /><path
       id="path3007"
       d="m 9,11 c -1.104,0 -2,0.896 -2,2 0,1.104 0.896,2 2,2 1.104,0 2,-0.896 2,-2 0,-1.104 -0.896,-2 -2,-2"
       inkscape:connector-curvature="0"
       style="fill:#bababa;fill-opacity:1" /><path
       id="path3011"
       d="m 11.822,12 c 0.112,0.313 0.178,0.648 0.178,1 0,0.354 -0.072,0.686 -0.184,1 H 16 v -2 h -4.178 z"
       inkscape:connector-curvature="0"
       style="fill:#bababa;fill-opacity:1" /></g><g
     transform="matrix(1,0,0,1.1580533,0.02093626,-0.71272321)"
     id="g3015"
     style="fill:#bababa;fill-opacity:1"><defs
       id="defs3017"><rect
         y="0"
         x="0"
         height="16"
         id="rect3019"
         width="16" /></defs><path
       style="fill:#bababa;fill-opacity:1"
       inkscape:connector-curvature="0"
       d="m 12,0.668 h -1 c -0.549,0 -1,0.45 -1,1 v 8.518 c 0.473,0.168 0.885,0.453 1.217,0.814 H 12 V 0.668 z"
       id="path3027" /></g></svg>