<?xml version="1.0" encoding="UTF-8" standalone="no"?>
<svg
   xmlns:dc="http://purl.org/dc/elements/1.1/"
   xmlns:cc="http://creativecommons.org/ns#"
   xmlns:rdf="http://www.w3.org/1999/02/22-rdf-syntax-ns#"
   xmlns:svg="http://www.w3.org/2000/svg"
   xmlns="http://www.w3.org/2000/svg"
   xmlns:sodipodi="http://sodipodi.sourceforge.net/DTD/sodipodi-0.dtd"
   xmlns:inkscape="http://www.inkscape.org/namespaces/inkscape"
   enable-background="new 0 0 32 32"
   height="32px"
   id="fill_x5F_01"
   version="1.1"
   viewBox="0 0 32 32"
   width="32px"
   x="0px"
   xml:space="preserve"
   y="0px"
   inkscape:version="0.48.4 r9939"
   sodipodi:docname="MyTickets.svg"
   inkscape:export-filename="U:\Development\Repositories\Main\branches\kevin\WebApp\Resources\Images\nav\20\MyTickets.png"
   inkscape:export-xdpi="56.400002"
   inkscape:export-ydpi="56.400002"><metadata
     id="metadata3770"><rdf:RDF><cc:Work
         rdf:about=""><dc:format>image/svg+xml</dc:format><dc:type
           rdf:resource="http://purl.org/dc/dcmitype/StillImage" /><dc:title></dc:title></cc:Work></rdf:RDF></metadata><defs
     id="defs3768" /><sodipodi:namedview
     pagecolor="#ffffff"
     bordercolor="#666666"
     borderopacity="1"
     objecttolerance="10"
     gridtolerance="10"
     guidetolerance="10"
     inkscape:pageopacity="0"
     inkscape:pageshadow="2"
     inkscape:window-width="1920"
     inkscape:window-height="1178"
     id="namedview3766"
     showgrid="false"
     inkscape:zoom="23.57913"
     inkscape:cx="23.849215"
     inkscape:cy="16.428381"
     inkscape:window-x="1912"
     inkscape:window-y="-8"
     inkscape:window-maximized="1"
     inkscape:current-layer="fill_x5F_01" /><path
     clip-rule="evenodd"
     d="m 28,32.043412 -20,0 0,-32.00000176 8,0 0,0.793 0,1.20699996 0,11.5930018 c 0,0.44 0.254,0.546 0.565,0.235 l 2.868,-2.869 c 0.312,-0.312 0.82,-0.312 1.132,0 l 2.868,2.869 c 0.312,0.311 0.567,0.205 0.567,-0.235 l 0,-11.5930018 0,-1.20699996 0,-0.793 4,0 c 2.209,0 4,1.79099996 4,3.99999996 l 0,24.0000018 c 0,2.209 -1.791,4 -4,4 z"
     id="path3764"
     style="fill:#d9534f;fill-opacity:1;fill-rule:evenodd"
     inkscape:connector-curvature="0"
     sodipodi:nodetypes="scccccsccccscccssss" /><path
     style="fill:#bababa;fill-opacity:1;fill-rule:evenodd"
     id="path2982"
     d="m 0.08482127,28.043411 0,-24.0000007 c 0,-2.209 1.79100003,-3.99999995 4.00000003,-3.99999995 l 2,0 0,32.00000065 -2,0 c -2.209,0 -4.00000003,-1.791 -4.00000003,-4 z"
     clip-rule="evenodd"
     inkscape:connector-curvature="0"
     sodipodi:nodetypes="sssccss" /></svg>