<?xml version="1.0" encoding="UTF-8" standalone="no"?>
<svg
   xmlns:dc="http://purl.org/dc/elements/1.1/"
   xmlns:cc="http://creativecommons.org/ns#"
   xmlns:rdf="http://www.w3.org/1999/02/22-rdf-syntax-ns#"
   xmlns:svg="http://www.w3.org/2000/svg"
   xmlns="http://www.w3.org/2000/svg"
   xmlns:sodipodi="http://sodipodi.sourceforge.net/DTD/sodipodi-0.dtd"
   xmlns:inkscape="http://www.inkscape.org/namespaces/inkscape"
   enable-background="new 0 0 60 60"
   height="60px"
   id="Layer_1"
   version="1.1"
   viewBox="0 0 60 60"
   width="60px"
   x="0px"
   xml:space="preserve"
   y="0px"
   inkscape:version="0.48.4 r9939"
   sodipodi:docname="Products.svg"
   inkscape:export-filename="U:\Development\Repositories\Main\branches\kevin\WebApp\Resources\Images\nav\20\Products.png"
   inkscape:export-xdpi="30.799999"
   inkscape:export-ydpi="30.799999"><metadata
     id="metadata13"><rdf:RDF><cc:Work
         rdf:about=""><dc:format>image/svg+xml</dc:format><dc:type
           rdf:resource="http://purl.org/dc/dcmitype/StillImage" /><dc:title></dc:title></cc:Work></rdf:RDF></metadata><defs
     id="defs11" /><sodipodi:namedview
     pagecolor="#ffffff"
     bordercolor="#666666"
     borderopacity="1"
     objecttolerance="10"
     gridtolerance="10"
     guidetolerance="10"
     inkscape:pageopacity="0"
     inkscape:pageshadow="2"
     inkscape:window-width="1920"
     inkscape:window-height="1178"
     id="namedview9"
     showgrid="false"
     inkscape:zoom="35.568988"
     inkscape:cx="36.152926"
     inkscape:cy="39.277649"
     inkscape:window-x="1912"
     inkscape:window-y="-8"
     inkscape:window-maximized="1"
     inkscape:current-layer="Layer_1" /><path
     d="M 36.737423,28.587 31.701,32.159261 v 23.169932 h 24.021588 v -0.02158 h 0.02239 l 3.705484,-3.735346 V 28.587 H 36.737423 z m 0.350771,1.02647 h 20.552439 l -2.630782,2.566177 H 33.478488 L 37.088194,29.61347 z M 58.38571,51.160956 55.722588,53.841051 V 32.939906 l 2.663122,-2.596155 v 20.817205 z"
     id="path3"
     style="fill:#bababa;fill-opacity:1"
     inkscape:connector-curvature="0" /><path
     d="M6.088,30.975L1,34.719V59h24.27v-0.021h0.022l3.743-3.916V30.975H6.088z M6.443,32.051h20.764l-2.658,2.689H2.796  L6.443,32.051z M27.959,54.632l-2.689,2.808V35.536l2.689-2.721V54.632z"
     id="path5"
     style="fill:#d9534f;fill-opacity:1" /><path
     d="M11.479,0L6.032,4.008V30h25.979v-0.023h0.023l4.007-4.192V0H11.479z M11.858,1.152h22.228L31.24,4.031H7.955L11.858,1.152z   M34.891,25.324l-2.879,3.005V4.883l2.879-2.912V25.324z"
     id="path7"
     style="fill:#bababa;fill-opacity:1" /></svg>