<?xml version="1.0" encoding="UTF-8" standalone="no"?>
<svg
   xmlns:dc="http://purl.org/dc/elements/1.1/"
   xmlns:cc="http://creativecommons.org/ns#"
   xmlns:rdf="http://www.w3.org/1999/02/22-rdf-syntax-ns#"
   xmlns:svg="http://www.w3.org/2000/svg"
   xmlns="http://www.w3.org/2000/svg"
   xmlns:sodipodi="http://sodipodi.sourceforge.net/DTD/sodipodi-0.dtd"
   xmlns:inkscape="http://www.inkscape.org/namespaces/inkscape"
   enable-background="new 0 0 16 16"
   height="16px"
   id="Layer_1"
   version="1.1"
   viewBox="0 0 16 16"
   width="16px"
   x="0px"
   xml:space="preserve"
   y="0px"
   inkscape:version="0.48.4 r9939"
   sodipodi:docname="Tag.svg"
   inkscape:export-filename="U:\Development\Repositories\Main\branches\kevin\WebApp\Resources\Images\nav\20\Tag.png"
   inkscape:export-xdpi="113.16241"
   inkscape:export-ydpi="113.16241"><metadata
     id="metadata16"><rdf:RDF><cc:Work
         rdf:about=""><dc:format>image/svg+xml</dc:format><dc:type
           rdf:resource="http://purl.org/dc/dcmitype/StillImage" /><dc:title></dc:title></cc:Work></rdf:RDF></metadata><defs
     id="defs14" /><sodipodi:namedview
     pagecolor="#ffffff"
     bordercolor="#666666"
     borderopacity="1"
     objecttolerance="10"
     gridtolerance="10"
     guidetolerance="10"
     inkscape:pageopacity="0"
     inkscape:pageshadow="2"
     inkscape:window-width="1920"
     inkscape:window-height="996"
     id="namedview12"
     showgrid="false"
     inkscape:zoom="47.764648"
     inkscape:cx="8"
     inkscape:cy="8"
     inkscape:window-x="-8"
     inkscape:window-y="307"
     inkscape:window-maximized="1"
     inkscape:current-layer="Layer_1" /><g
     id="g3"
     style="fill:#5cb85c;fill-opacity:1"
     transform="matrix(1.1585944,0,0,1.0611332,-1.1007137,-0.96138058)"><defs
       id="defs5"><rect
         height="16"
         id="SVGID_1_"
         width="16"
         x="0"
         y="0" /></defs><path
       d="M 1,3 V 8.657 L 8.071,15.726 13.728,10.07 6.658,3 H 1 z M 4,7.25 C 3.312,7.25 2.75,6.689 2.75,6 2.75,5.311 3.312,4.75 4,4.75 4.688,4.75 5.25,5.311 5.25,6 5.25,6.689 4.689,7.25 4,7.25"
       id="path8"
       style="fill:#5cb85c;fill-opacity:1"
       inkscape:connector-curvature="0" /></g><polygon
     points="6.387,2 6.801,2 14,9.001 14.729,8.071 7.658,1 2,1 2,2 "
     id="polygon10"
     style="fill:#bababa;fill-opacity:1"
     transform="matrix(1.1585944,0,0,1.0611332,-1.1007137,-0.96138058)" /></svg>