<?xml version="1.0" encoding="UTF-8" standalone="no"?>
<svg
   xmlns:dc="http://purl.org/dc/elements/1.1/"
   xmlns:cc="http://creativecommons.org/ns#"
   xmlns:rdf="http://www.w3.org/1999/02/22-rdf-syntax-ns#"
   xmlns:svg="http://www.w3.org/2000/svg"
   xmlns="http://www.w3.org/2000/svg"
   xmlns:sodipodi="http://sodipodi.sourceforge.net/DTD/sodipodi-0.dtd"
   xmlns:inkscape="http://www.inkscape.org/namespaces/inkscape"
   enable-background="new 0 0 48 48"
   height="48px"
   id="图层_1"
   version="1.1"
   viewBox="0 0 48 48"
   width="48px"
   x="0px"
   xml:space="preserve"
   y="0px"
   inkscape:version="0.48.4 r9939"
   sodipodi:docname="Tickets.svg"><metadata
     id="metadata16"><rdf:RDF><cc:Work
         rdf:about=""><dc:format>image/svg+xml</dc:format><dc:type
           rdf:resource="http://purl.org/dc/dcmitype/StillImage" /><dc:title></dc:title></cc:Work></rdf:RDF></metadata><defs
     id="defs14" /><sodipodi:namedview
     pagecolor="#ffffff"
     bordercolor="#666666"
     borderopacity="1"
     objecttolerance="10"
     gridtolerance="10"
     guidetolerance="10"
     inkscape:pageopacity="0"
     inkscape:pageshadow="2"
     inkscape:window-width="1920"
     inkscape:window-height="996"
     id="namedview12"
     showgrid="false"
     inkscape:zoom="26.809835"
     inkscape:cx="26.021343"
     inkscape:cy="34.443929"
     inkscape:window-x="-8"
     inkscape:window-y="307"
     inkscape:window-maximized="1"
     inkscape:current-layer="图层_1" /><g
     id="g3"
     style="fill:#f0ad4e;fill-opacity:1"
     inkscape:export-xdpi="37.499538"
     inkscape:export-ydpi="37.499538"
     inkscape:export-filename="U:\Development\Repositories\Main\branches\kevin\WebApp\Resources\Images\nav\20\Tickets.png"
     transform="matrix(1,0,0,1.0989455,0,-2.300048)"><linearGradient
       gradientUnits="userSpaceOnUse"
       id="SVGID_1_"
       x1="24.0005"
       x2="24.0005"
       y1="45.8652"
       y2="2.1352999"><stop
         offset="0.0337"
         style="stop-color:#221714"
         id="stop6" /><stop
         offset="1"
         style="stop-color:#514F4F"
         id="stop8" /></linearGradient><path
       d="M 47.6,17.796 44.629,13.893 C 42.804,14.581 40.67,14.031 39.427,12.398 38.186,10.765 38.225,8.562 39.375,6.986 L 36.274,2.911 C 35.617,2.048 34.374,1.879 33.512,2.535 l -3.644,2.772 c 0.281,0.275 0.453,0.672 0.43,1.111 -0.04,0.779 -0.67,1.379 -1.407,1.34 C 28.371,7.731 27.944,7.39 27.748,6.919 L 0.775,27.441 c -0.863,0.656 -1.032,1.9 -0.375,2.763 l 3.101,4.075 c 1.826,-0.688 3.959,-0.139 5.202,1.494 1.243,1.633 1.204,3.837 0.052,5.413 l 2.971,3.903 c 0.656,0.862 1.899,1.031 2.762,0.375 L 41.521,24.896 c -0.16,-0.247 -0.251,-0.548 -0.234,-0.872 0.042,-0.779 0.671,-1.38 1.408,-1.34 0.411,0.022 0.764,0.243 0.991,0.565 l 3.539,-2.693 c 0.862,-0.655 1.031,-1.897 0.375,-2.76 z M 31.772,8.485 c 0.737,0.039 1.3,0.703 1.258,1.483 -0.042,0.78 -0.672,1.379 -1.407,1.34 -0.737,-0.039 -1.3,-0.702 -1.259,-1.482 0.041,-0.78 0.671,-1.381 1.408,-1.341 z m 1.806,15.561 -15.829,12.28 C 16.88,37 15.617,36.841 14.943,35.972 L 10.04,29.653 C 9.366,28.784 9.525,27.521 10.394,26.847 L 26.223,14.565 c 0.869,-0.674 2.132,-0.515 2.806,0.354 l 4.904,6.321 c 0.673,0.869 0.514,2.132 -0.355,2.806 z m 0.775,-9.187 c -0.736,-0.04 -1.299,-0.702 -1.258,-1.483 0.041,-0.78 0.671,-1.379 1.408,-1.342 0.736,0.039 1.299,0.703 1.258,1.483 -0.042,0.78 -0.671,1.381 -1.408,1.342 z m 2.73,3.55 c -0.736,-0.039 -1.299,-0.703 -1.259,-1.484 0.042,-0.78 0.673,-1.379 1.408,-1.34 0.737,0.039 1.3,0.702 1.259,1.482 -0.042,0.781 -0.672,1.381 -1.408,1.342 z m 2.73,3.55 c -0.736,-0.039 -1.299,-0.703 -1.258,-1.483 0.041,-0.781 0.672,-1.38 1.408,-1.342 0.735,0.039 1.298,0.702 1.258,1.483 -0.04,0.78 -0.671,1.381 -1.408,1.342 z"
       id="path10"
       style="fill:#f0ad4e;fill-opacity:1"
       inkscape:connector-curvature="0" /></g></svg>