<?xml version="1.0" encoding="UTF-8" standalone="no"?>
<svg
   xmlns:dc="http://purl.org/dc/elements/1.1/"
   xmlns:cc="http://creativecommons.org/ns#"
   xmlns:rdf="http://www.w3.org/1999/02/22-rdf-syntax-ns#"
   xmlns:svg="http://www.w3.org/2000/svg"
   xmlns="http://www.w3.org/2000/svg"
   xmlns:sodipodi="http://sodipodi.sourceforge.net/DTD/sodipodi-0.dtd"
   xmlns:inkscape="http://www.inkscape.org/namespaces/inkscape"
   enable-background="new 0 0 32 32"
   height="32px"
   id="fill_x5F_01"
   version="1.1"
   viewBox="0 0 32 32"
   width="32px"
   x="0px"
   xml:space="preserve"
   y="0px"
   inkscape:version="0.48.4 r9939"
   sodipodi:docname="Users.svg"
   inkscape:export-filename="U:\Development\Repositories\Main\branches\kevin\WebApp\Resources\Images\nav\20\Users.png"
   inkscape:export-xdpi="56.246483"
   inkscape:export-ydpi="56.246483"><metadata
     id="metadata9"><rdf:RDF><cc:Work
         rdf:about=""><dc:format>image/svg+xml</dc:format><dc:type
           rdf:resource="http://purl.org/dc/dcmitype/StillImage" /><dc:title></dc:title></cc:Work></rdf:RDF></metadata><defs
     id="defs7" /><sodipodi:namedview
     pagecolor="#ffffff"
     bordercolor="#666666"
     borderopacity="1"
     objecttolerance="10"
     gridtolerance="10"
     guidetolerance="10"
     inkscape:pageopacity="0"
     inkscape:pageshadow="2"
     inkscape:window-width="708"
     inkscape:window-height="619"
     id="namedview5"
     showgrid="false"
     inkscape:zoom="7.375"
     inkscape:cx="16"
     inkscape:cy="16"
     inkscape:window-x="0"
     inkscape:window-y="315"
     inkscape:window-maximized="0"
     inkscape:current-layer="fill_x5F_01" /><path
     clip-rule="evenodd"
     d="M31.92,17.586c-0.023,0.238-0.068,0.468-0.103,0.702  c-0.039,0.275-0.072,0.554-0.126,0.824c-0.062,0.313-0.146,0.619-0.226,0.926c-0.047,0.178-0.086,0.359-0.138,0.535  c-0.108,0.36-0.236,0.712-0.369,1.062c-0.041,0.109-0.076,0.221-0.12,0.329c-0.158,0.391-0.334,0.771-0.521,1.146  c-0.029,0.058-0.055,0.117-0.084,0.175c-0.209,0.403-0.434,0.797-0.674,1.18c-0.015,0.022-0.027,0.045-0.042,0.067  c-0.255,0.402-0.526,0.792-0.814,1.168c-0.003,0.003-0.005,0.006-0.007,0.009c-0.294,0.383-0.605,0.753-0.932,1.108  c-2.924,3.18-7.105,5.185-11.766,5.185c-4.658,0-8.838-2.003-11.762-5.18c-0.327-0.355-0.639-0.726-0.934-1.109  c-0.002-0.003-0.004-0.005-0.006-0.008c-0.289-0.377-0.562-0.768-0.816-1.169c-0.014-0.022-0.026-0.044-0.04-0.066  c-0.241-0.384-0.467-0.778-0.676-1.183c-0.029-0.057-0.055-0.115-0.083-0.172c-0.188-0.375-0.364-0.757-0.522-1.147  c-0.043-0.108-0.079-0.219-0.12-0.328c-0.133-0.35-0.261-0.703-0.369-1.064c-0.053-0.175-0.091-0.356-0.138-0.534  c-0.08-0.307-0.164-0.613-0.227-0.928c-0.054-0.271-0.086-0.548-0.126-0.823c-0.033-0.234-0.078-0.466-0.102-0.703  C0.028,17.064,0,16.536,0,16.001C0,7.164,7.163,0,16,0c8.836,0,16,7.164,16,16.001C32,16.536,31.971,17.064,31.92,17.586z M16,4.001  c-6.628,0-12,5.372-12,12c0,3.079,1.169,5.878,3.076,8.002c1.457-0.812,3.354-1.42,5.497-1.743C11.019,20.594,10,18.04,10,16.001v-2  c0-3.314,2.686-6,6-6c3.313,0,6,2.686,6,6v2c0,2.038-1.02,4.593-2.573,6.26c2.144,0.321,4.04,0.928,5.498,1.741  c1.906-2.125,3.075-4.923,3.075-8C28,9.373,22.627,4.001,16,4.001z"
     fill="#010101"
     fill-rule="evenodd"
     id="path3"
     style="fill:#f0ad4e;fill-opacity:1" /></svg>