<?xml version="1.0" encoding="UTF-8" standalone="no"?>
<svg
   xmlns:dc="http://purl.org/dc/elements/1.1/"
   xmlns:cc="http://creativecommons.org/ns#"
   xmlns:rdf="http://www.w3.org/1999/02/22-rdf-syntax-ns#"
   xmlns:svg="http://www.w3.org/2000/svg"
   xmlns="http://www.w3.org/2000/svg"
   xmlns:sodipodi="http://sodipodi.sourceforge.net/DTD/sodipodi-0.dtd"
   xmlns:inkscape="http://www.inkscape.org/namespaces/inkscape"
   height="512px"
   style="enable-background:new 0 0 503.77 512;"
   version="1.1"
   viewBox="0 0 503.77 512"
   width="503.77px"
   x="0px"
   xml:space="preserve"
   y="0px"
   id="svg2"
   inkscape:version="0.48.4 r9939"
   sodipodi:docname="Wiki.svg"><metadata
     id="metadata12"><rdf:RDF><cc:Work
         rdf:about=""><dc:format>image/svg+xml</dc:format><dc:type
           rdf:resource="http://purl.org/dc/dcmitype/StillImage" /><dc:title></dc:title></cc:Work></rdf:RDF></metadata><defs
     id="defs10" /><sodipodi:namedview
     pagecolor="#ffffff"
     bordercolor="#666666"
     borderopacity="1"
     objecttolerance="10"
     gridtolerance="10"
     guidetolerance="10"
     inkscape:pageopacity="0"
     inkscape:pageshadow="2"
     inkscape:window-width="708"
     inkscape:window-height="560"
     id="namedview8"
     showgrid="false"
     inkscape:zoom="0.4609375"
     inkscape:cx="251.88499"
     inkscape:cy="256"
     inkscape:window-x="0"
     inkscape:window-y="315"
     inkscape:window-maximized="0"
     inkscape:current-layer="svg2" /><g
     id="meanicons_x5F_68"
     style="fill:#3276b1;fill-opacity:1"
     inkscape:export-xdpi="3.5799999"
     inkscape:export-ydpi="3.5799999"
     inkscape:export-filename="U:\Development\Repositories\Main\branches\kevin\WebApp\Resources\Images\nav\20\Wiki.png"><path
       d="M413.18,206.749h13.828c14.152,0,26.441,13.185,32.477,32.467c4.855,5.939,10.676,9.422,16.969,9.422   c12.004,0,22.27-12.624,27.316-30.917v-42.628c0-4.665-0.762-9.105-1.805-13.419l0.574-0.209   c-1.215-6.419-4.234-12.206-8.402-17.284c-7.457-10.502-18.449-17.365-30.859-17.365h-7.453h-81.41   c-17.898-5.078-30.207-15.28-30.207-27.073c0-6.302,3.48-12.125,9.395-16.999c19.281-6.021,32.527-18.298,32.496-32.487   l0.031-13.833C386.129,16.3,359.566,0,326.793,0h-22.555c-32.723,0-59.309,16.315-59.309,36.423v13.833   c0,14.189,13.246,26.466,32.5,32.457c5.934,4.905,9.422,10.728,9.422,17.029c0,11.792-12.297,21.995-30.203,27.073h-3.609h-80.773   h-4.484c-6.273,0-12.176,1.902-17.488,4.905c-15.113,6.98-25.492,20.613-25.492,36.582v90.86   c-5.027,18.304-15.02,30.896-26.656,30.896c-6.18,0-11.93-3.579-16.711-9.605c-5.934-19.751-18-33.232-31.957-33.232H35.852   C16.082,247.22,0,274.359,0,307.882v23.056c0,33.527,16.082,60.688,35.852,60.688h13.625c13.957,0,26.023-13.542,31.938-33.227   c4.801-6.063,10.551-9.668,16.73-9.668c11.637,0,21.629,12.594,26.656,30.893v90.937c0,18.293,13.684,33.665,32.508,39.104   c1.254,0.444,2.52,0.796,3.844,1.066c3.559,0.765,7.281,1.27,11.113,1.27h53.383c18.008-5.139,30.43-15.668,30.43-27.945   c0-6.429-3.387-12.439-9.25-17.37c-18.957-6.185-31.949-18.747-31.949-33.257l0.043-14.134   c-0.043-20.572,26.113-37.311,58.348-37.311h22.156c32.234,0,58.359,16.738,58.359,37.311v14.134c0,14.51-13.023,27.072-32,33.257   c-5.852,4.931-9.207,10.941-9.207,17.37c0,12.247,12.41,22.775,30.375,27.945h112.871c2.133,0,4.141-0.234,6.168-0.479h1.285   c22.344,0,40.492-21.571,40.492-48.298V336.943c-5.047-18.309-15.375-30.953-27.316-30.953c-6.262,0-12.113,3.457-16.969,9.428   c-6.035,19.246-18.324,32.487-32.477,32.487H413.18c-20.137,0-36.465-26.573-36.465-59.331v-22.52   C376.715,233.291,393.043,206.749,413.18,206.749z"
       id="path5"
       style="fill:#3276b1;fill-opacity:1" /></g><g
     id="Layer_1" /></svg>